<?xml version="1.0" standalone="no"?><!DOCTYPE svg PUBLIC "-//W3C//DTD SVG 1.1//EN"
        "http://www.w3.org/Graphics/SVG/1.1/DTD/svg11.dtd">
<svg t="1501430660298" class="icon" style="" viewBox="0 0 1024 1024" version="1.1" xmlns="http://www.w3.org/2000/svg"
     p-id="1697" xmlns:xlink="http://www.w3.org/1999/xlink" width="200" height="200">
    <defs>
        <style type="text/css"></style>
    </defs>
    <path d="M981.184 482.464c21.76 0 39.392-17.632 39.392-39.392l0-393.856c0-21.76-17.632-39.392-39.392-39.392l-396.928 0c-21.728 0-39.392 17.632-39.392 39.392l0 393.856c0 21.76 17.632 39.392 39.392 39.392l396.928 0zM738.112 541.536c106.72 0 193.248 85.952 193.248 192 0 45.504-16 87.232-42.624 120.128l102.08 101.408-29.728 29.536-102.08-101.408c-33.088 26.432-75.104 42.336-120.896 42.336-106.72 0-193.248-85.952-193.248-192s86.528-192 193.248-192zM738.112 896c90.304 0 163.52-72.736 163.52-162.464s-73.216-162.464-163.52-162.464c-90.304 0-163.52 72.736-163.52 162.464s73.216 162.464 163.52 162.464zM446.016 1014.144c21.728 0 39.392-17.632 39.392-39.392l0-393.856c0-21.76-17.632-39.392-39.392-39.392l-396.928 0c-21.76 0-39.392 17.632-39.392 39.392l0 393.856c0 21.76 17.632 39.392 39.392 39.392l396.928 0zM446.016 482.464c21.728 0 39.392-17.632 39.392-39.392l0-393.856c0-21.76-17.632-39.392-39.392-39.392l-396.928 0c-21.76 0-39.392 17.632-39.392 39.392l0 393.856c0 21.76 17.632 39.392 39.392 39.392l396.928 0z"
          p-id="1698" fill="#1296db"></path>
</svg>