<?xml version="1.0" standalone="no"?><!DOCTYPE svg PUBLIC "-//W3C//DTD SVG 1.1//EN"
        "http://www.w3.org/Graphics/SVG/1.1/DTD/svg11.dtd">
<svg t="1501430204468" class="icon" style="" viewBox="0 0 1324 1024" version="1.1" xmlns="http://www.w3.org/2000/svg"
     p-id="1004" xmlns:xlink="http://www.w3.org/1999/xlink" width="258.59375" height="200">
    <defs>
        <style type="text/css"></style>
    </defs>
    <path d="M924.271913 320.64239a35.722383 35.722383 0 0 0-60.921339-26.95286l-152.016993 152.016994a35.901353 35.901353 0 0 0 0.071588 50.541086 35.650795 35.650795 0 0 0 50.541086 0.071588l90.77351-90.773509v561.177873c0 19.615096 15.892523 35.507619 35.793971 35.507619 19.758272 0 35.793971-16.286257 35.793971-35.507619V321.859385v-1.216995z m143.032707 642.573363V321.859385c0-19.221362 15.999905-35.507619 35.79397-35.507619 19.901448 0 35.793971 15.892523 35.793971 35.507619v558.206974l90.630334-90.630334a35.650795 35.650795 0 0 1 50.541087 0.071588c13.959649 13.959649 13.816473 36.796202 0.071588 50.541086l-152.016994 152.016994a35.793971 35.793971 0 1 1-60.84975-28.84994zM7.624116 35.793971c0-19.758272 15.820935-35.793971 36.008734-35.793971h1109.21936a35.793971 35.793971 0 1 1 0 71.587941H43.597056A35.793971 35.793971 0 0 1 7.65991 35.793971z m0 465.321619c0-19.758272 15.820935-35.793971 36.080322-35.79397h518.475666a35.829765 35.829765 0 1 1 0 71.587941H43.668644a35.829765 35.829765 0 0 1-36.080322-35.793971z m0 465.32162c0-19.758272 15.713553-35.793971 35.758177-35.793971h680.157032c19.758272 0 35.793971 15.892523 35.79397 35.793971 0 19.758272-15.749347 35.793971-35.79397 35.793971H43.382293a35.686589 35.686589 0 0 1-35.758177-35.793971z"
          fill="#1296db" p-id="1005"></path>
</svg>