<?xml version="1.0" standalone="no"?><!DOCTYPE svg PUBLIC "-//W3C//DTD SVG 1.1//EN"
        "http://www.w3.org/Graphics/SVG/1.1/DTD/svg11.dtd">
<svg t="1501561885272" class="icon" style="" viewBox="0 0 1024 1024" version="1.1" xmlns="http://www.w3.org/2000/svg"
     p-id="4835" xmlns:xlink="http://www.w3.org/1999/xlink" width="200" height="200">
    <defs>
        <style type="text/css"></style>
    </defs>
    <path d="M579.584 451.584H444.416c-25.088 32.768-53.248 59.904-92.672 90.112 20.48 1.536 29.184 1.536 49.664 1.536h207.36c30.72 0 56.832-0.512 68.608-2.048-31.744-22.528-50.176-39.424-97.792-89.6z"
          p-id="4836" fill="#fc7a05"></path>
    <path d="M921.6 0H102.4C46.08 0 0 46.08 0 102.4v819.2c0 56.32 46.08 102.4 102.4 102.4h819.2c56.32 0 102.4-46.08 102.4-102.4V102.4c0-56.32-46.08-102.4-102.4-102.4z m-115.712 616.96c-55.296-26.624-86.528-45.568-125.952-73.216-1.536 9.728-1.536 12.8-3.584 46.08-4.096 84.48-12.8 142.336-23.04 164.352-9.728 20.992-26.624 28.16-66.56 28.16-23.552 0-52.224-1.536-86.528-4.096-2.048-20.48-4.096-29.184-9.728-46.08 43.52 6.144 69.632 8.192 95.744 8.192 21.504 0 29.184-6.144 33.28-28.672 7.168-34.816 10.24-68.608 13.312-130.048H486.912c-13.312 60.928-30.208 95.744-61.44 129.024-36.352 38.912-82.944 66.56-155.648 90.624-9.728-18.944-15.872-28.16-29.184-39.936 68.608-18.944 111.616-41.472 146.944-74.24 23.04-21.504 36.864-44.544 45.568-74.752 2.56-8.192 2.56-8.192 8.192-31.232h-35.84c-33.28 0-53.76 1.536-72.192 4.096v-30.72c-32.256 20.992-57.856 35.84-115.2 63.488-7.68-15.36-15.872-24.576-30.72-36.864 103.936-42.496 162.816-79.872 206.336-130.048H279.552c-36.352 0-56.832 1.536-75.264 4.096v-48.128c17.92 2.56 38.4 4.096 75.264 4.096h143.36c15.36-26.624 24.576-48.128 34.304-82.432H326.144c-35.84 0-53.76 0.512-75.264 3.584v-46.08c18.944 3.584 36.864 4.096 75.264 4.096h28.672C337.92 256 324.608 236.032 297.472 200.192l40.96-16.896c25.6 36.352 42.496 65.536 61.952 107.008H465.92c5.632-34.304 13.824-103.424 13.824-123.904v-6.144l51.2 4.096c-7.168 23.552-7.168 23.552-16.896 93.696-1.536 7.168-1.536 10.24-5.632 32.256h86.016c34.816-41.984 53.76-70.656 72.704-108.032l44.544 16.896c-30.208 46.08-44.032 65.024-67.072 91.648h57.344c38.912 0 57.344-0.512 76.8-4.096v46.08c-22.528-2.56-40.448-3.584-76.8-3.584H500.224c-10.24 38.4-16.896 55.296-30.72 82.432h274.432c40.448 0 57.856-0.512 77.312-4.096V455.68c-23.04-2.56-44.544-4.096-77.312-4.096h-114.688c45.568 41.472 49.152 44.032 76.8 62.976 40.448 26.624 72.192 40.448 132.608 59.904-13.824 12.8-22.016 24.064-32.768 42.496z"
          p-id="4837" fill="#fc7a05"></path>
</svg>