<?xml version="1.0" standalone="no"?><!DOCTYPE svg PUBLIC "-//W3C//DTD SVG 1.1//EN"
        "http://www.w3.org/Graphics/SVG/1.1/DTD/svg11.dtd">
<svg t="1501561455357" class="icon" style="" viewBox="0 0 1024 1024" version="1.1" xmlns="http://www.w3.org/2000/svg"
     p-id="4107" xmlns:xlink="http://www.w3.org/1999/xlink" width="200" height="200">
    <defs>
        <style type="text/css"></style>
    </defs>
    <path d="M219.794 209.405c29.977 0.031 60.518 5.342 87.494 18.885 22.53 11.265 41.602 29.316 53.731 51.422 17.581 31.484 21.617 68.42 20.377 103.898 0.031 55.019 0.031 110.041 0.047 165.058-0.313 32.961 1.366 66.112-3.331 98.853-4.242 30.337-13.040 60.549-29.631 86.521-12.647 19.953-30.117 36.858-50.732 48.435-23.677 13.385-50.841 20.047-77.941 20.721 0.125-19.765 0.063-39.543 0.031-59.308 25.858-3.613 50.448-16.231 68.123-35.506 16.749-18.021 26.835-41.413 31.359-65.42 5.042-24.917 3.236-50.448 3.629-75.695-28.484 15.726-56.339 32.506-84.225 49.253-6.364 3.488-12.192 7.981-18.87 10.855 0.11-20.095-0.141-40.189 0.125-60.282 34.358-20.126 68.642-40.377 102.843-60.754-0.189-32.522-0.031-65.043-0.063-97.55-30.417 16.811-60.158 34.847-89.978 52.713-4.306 2.404-8.247 5.498-12.899 7.243-0.095-19.921 0.158-39.844-0.11-59.748 33.842-20.425 67.981-40.393 102.074-60.406-2.781-22.027-12.27-43.945-29.834-58.131-20.015-16.701-46.708-22.324-72.16-23.141 0.031-19.293 0.172-38.602-0.063-57.909zM479.008 209.326c18.87-0.172 37.722-0.031 56.59-0.079-0.031 21.445 0.141 42.908-0.095 64.353 50.573 0.597 101.179 0.11 151.753 0.236 0-21.522-0.017-43.047 0-64.587 18.885 0 37.754 0 56.638 0.017 0 21.522-0.017 43.047 0 64.587 19.968 0.017 39.921 0 59.874 0 0.017 19.308 0.017 38.618 0.017 57.942h-59.889c-0.017 17.833 0 35.649-0.017 53.481-18.87 0.017-37.754 0.017-56.623 0-0.031-17.815-0.017-35.649 0-53.465-50.557 0-101.116-0.095-151.674 0.047 0.095 17.815 0.031 35.632 0.031 53.447-18.885-0.095-37.771 0.285-56.654-0.172 0.189-17.769 0.031-35.538 0.095-53.307-20.078-0.031-40.141 0.017-60.219 0 0-19.325-0.017-38.649 0.017-57.974 20.063-0.017 40.125 0.031 60.189-0.017 0-21.509 0.079-43.015-0.031-64.509zM418.85 427.71c89.002 0.017 178.021 0.017 267.023 0.017 15.789 0.079 31.706-0.597 47.322 2.233 17.675 2.969 35.27 10.245 47.635 23.614 17.407 18.571 22.293 45.122 22.42 69.756 0.063 92.898 0.031 185.78 0 278.681-94.627 0-189.253 0.031-283.881 0.047-16.090 0.017-32.396-1.981-47.415-7.95-16.669-6.458-31.108-18.635-39.764-34.314-10.054-17.833-13.243-38.618-13.402-58.838 0.017-91.075-0.047-182.153 0.063-273.245M474.875 483.529c0.063 34.674 0.158 69.33 0.172 104.005 36.355 0.031 72.708 0.031 109.067 0.047-0.017-34.69 0.031-69.379 0-104.054-36.416-0.031-72.837 0-109.238 0M638.050 483.513c0.047 34.72-0.172 69.443 0.095 104.163 36.229-0.172 72.473 0.017 108.703-0.063-0.252-20.85 0.849-41.76-1.209-62.529-1.397-11.232-3.771-23.52-12.349-31.626-8.514-7.841-20.721-8.891-31.721-9.597-21.164-0.69-42.356-0.236-63.519-0.347M475.16 641.032c0.22 18.476-0.565 36.969 0.517 55.428 1.1 13.762 4.038 28.721 14.406 38.679 9.882 9.426 24.037 11.753 37.11 12.883 18.931 1.366 37.941 0.581 56.919 0.785 0.017-35.931 0.017-71.861-0.017-107.792-36.307-0.017-72.631-0.017-108.94 0.017M638.034 641.016c-0.017 35.931 0 71.861 0 107.792 36.293-0.017 72.583 0.095 108.861-0.031-0.063-35.916-0.017-71.83-0.017-107.746-36.293-0.063-72.569-0.017-108.846-0.017z"
          p-id="4108" fill="#d81e06"></path>
</svg>